<?xml version="1.0" encoding="UTF-8" standalone="no"?>
<svg width="1010px" height="1010px" viewBox="0 0 1010 1010" version="1.1" xmlns="http://www.w3.org/2000/svg" xmlns:xlink="http://www.w3.org/1999/xlink">
    <!-- Generator: Sketch 41 (35326) - http://www.bohemiancoding.com/sketch -->
    <title>Group</title>
    <desc>Created with Sketch.</desc>
    <defs>
        <linearGradient x1="50%" y1="0%" x2="50%" y2="100%" id="linearGradient-1">
            <stop stop-color="#FFDC60" offset="0%"></stop>
            <stop stop-color="#FFB201" offset="100%"></stop>
        </linearGradient>
        <circle id="path-2" cx="495" cy="495" r="495"></circle>
        <mask id="mask-3" maskContentUnits="userSpaceOnUse" maskUnits="objectBoundingBox" x="-10" y="-10" width="1010" height="1010">
            <rect x="-10" y="-10" width="1010" height="1010" fill="white"></rect>
            <use xlink:href="#path-2" fill="black"></use>
        </mask>
    </defs>
    <g id="Page-1" stroke="none" stroke-width="1" fill="none" fill-rule="evenodd">
        <g id="Group" transform="translate(10.000000, 10.000000)">
            <g id="Oval">
                <use fill="url(#linearGradient-1)" fill-rule="evenodd" xlink:href="#path-2"></use>
                <use stroke="#1D60A4" mask="url(#mask-3)" stroke-width="20" xlink:href="#path-2"></use>
            </g>
            <path d="M431.523179,487.260953 C369.596158,465.256428 338.633113,431.93579 338.633113,387.298039 C338.633113,352.090799 355.057672,323.956864 387.907285,302.89539 C420.756897,281.833916 461.543244,271.303337 510.26755,271.303337 C554.59095,271.303337 589.797662,278.611873 615.888742,293.229165 C641.979821,307.846457 655.025166,325.371226 655.025166,345.803999 C655.025166,356.491912 650.938672,365.843694 642.765563,373.859629 C634.592454,381.875563 625.162084,385.88347 614.474172,385.88347 C596.870552,385.88347 582.410653,373.62399 571.09404,349.104662 C555.376522,315.154823 531.800599,298.180158 500.365563,298.180158 C475.531885,298.180158 455.099418,306.353145 439.06755,322.699364 C423.035681,339.045582 415.019868,361.835641 415.019868,391.070225 C415.019868,448.59634 444.725531,477.358966 504.137748,477.358966 C510.424755,477.358966 517.654705,476.730275 525.827815,475.472874 C539.973581,473.586771 550.975678,472.643734 558.834437,472.643734 C578.009809,472.643734 587.597351,478.144783 587.597351,489.147046 C587.597351,501.40671 577.852636,507.53645 558.362914,507.53645 C551.447206,507.53645 541.0738,506.43624 527.242384,504.235787 C516.868822,502.349685 508.853008,501.406648 503.194702,501.406648 C440.32463,501.406648 408.890066,533.469904 408.890066,597.597377 C408.890066,628.718062 417.220226,653.787127 433.880795,672.805324 C450.541364,691.823521 473.802941,701.332476 503.666225,701.332476 C541.073918,701.332476 565.907223,682.000219 578.166887,643.335125 C584.453895,622.902352 591.448085,608.756798 599.149669,600.898039 C606.851253,593.03928 617.146072,589.10996 630.034437,589.10996 C640.722349,589.10996 650.388478,592.960694 659.033113,600.662278 C667.677747,608.363861 672,618.187163 672,630.132476 C672,658.738359 655.968372,682.392868 623.904636,701.096715 C591.840899,719.800561 553.019212,729.152344 507.438411,729.152344 C457.456704,729.152344 413.055382,717.207209 374.233113,693.316582 C335.410843,669.425955 316,637.519872 316,597.597377 C316,547.61567 354.507341,510.83723 431.523179,487.260953 Z" id="ε" fill="#000000"></path>
        </g>
    </g>
</svg>